<?xml version="1.0" encoding="iso-8859-1"?>
<!-- Uploaded to: SVG Repo, www.svgrepo.com, Generator: SVG Repo Mixer Tools -->
<svg fill="#000000" height="800px" width="800px" version="1.1" id="Layer_1" xmlns="http://www.w3.org/2000/svg" xmlns:xlink="http://www.w3.org/1999/xlink" 
	 viewBox="0 0 512 512" xml:space="preserve">
<g transform="translate(1 1)">
	<g>
		<path d="M511,254.999V75.8C511,33.133,476.867-1,434.2-1H255H75.8c-1.323,0-2.642,0.035-3.957,0.099
			c-0.065,0.003-0.129,0.01-0.194,0.014C52.683,0.08,34.71,7.663,21.187,21.187c-0.712,0.712-1.266,1.428-1.681,2.201
			C6.767,37.075-1,55.462-1,75.8v358.4c0,20.404,7.82,38.844,20.632,52.545c0.399,0.734,0.917,1.431,1.554,2.068
			c13.523,13.523,31.497,21.107,50.462,22.074c0.065,0.003,0.129,0.01,0.194,0.014C73.158,510.965,74.477,511,75.8,511H255h179.2
			c42.667,0,76.8-34.133,76.8-76.8V255.001C511,255,511,255,511,254.999z M493.933,75.8v158.72L275.48,16.067H434.2
			C467.48,16.067,493.933,42.52,493.933,75.8z M16.067,75.8c0-13.341,4.259-25.579,11.496-35.461L243.053,255L27.91,470.143
			c-7.452-9.964-11.844-22.387-11.844-35.943V75.8z M75.8,493.933c-0.893,0-1.778-0.028-2.661-0.066
			c-0.573-0.026-1.146-0.063-1.718-0.107c-0.201-0.014-0.402-0.029-0.603-0.045c-11.1-0.952-21.948-5.047-30.858-11.729
			l221.013-221.013c1.707-1.707,2.56-3.413,2.56-5.973c0-2.56-0.853-4.267-2.56-5.973L39.96,28.013
			c8.91-6.682,19.758-10.777,30.858-11.729c0.201-0.016,0.402-0.031,0.603-0.045c0.572-0.043,1.145-0.08,1.718-0.107
			c0.883-0.038,1.768-0.066,2.661-0.066h175.787L490.52,255L251.587,493.933H75.8z M434.2,493.933H275.48L493.933,275.48V434.2
			C493.933,467.48,467.48,493.933,434.2,493.933z"/>
	</g>
</g>
</svg>